<?xml version="1.0" standalone="no"?>
<!DOCTYPE svg PUBLIC "-//W3C//DTD SVG 20010904//EN"
 "http://www.w3.org/TR/2001/REC-SVG-20010904/DTD/svg10.dtd">
<svg version="1.0" xmlns="http://www.w3.org/2000/svg"
 width="900.000000pt" height="626.000000pt" viewBox="0 0 900.000000 626.000000"
 preserveAspectRatio="xMidYMid meet">

<g transform="translate(0.000000,626.000000) scale(0.100000,-0.100000)"
fill="#000000" stroke="none">
<path d="M4240 6245 c-191 -19 -330 -43 -479 -80 -480 -119 -879 -322 -1281
-650 -80 -65 -291 -276 -366 -366 -377 -451 -618 -985 -703 -1559 -53 -358
-52 -602 4 -960 101 -638 420 -1257 886 -1717 184 -181 293 -269 479 -391 455
-298 926 -458 1510 -511 361 -34 810 25 1210 159 293 98 610 264 860 449 284
212 537 475 731 765 308 459 475 945 528 1536 26 280 -5 633 -83 948 -35 140
-118 401 -140 437 -7 11 -20 41 -30 67 -41 110 -189 379 -295 533 -48 71 -155
212 -171 225 -3 3 -16 19 -29 35 -58 77 -319 329 -427 413 -448 348 -946 563
-1485 641 -290 43 -485 50 -719 26z m575 -631 c208 -26 519 -107 635 -165 19
-9 69 -32 110 -49 383 -166 800 -526 1035 -895 21 -33 46 -72 56 -87 28 -40
124 -229 154 -301 151 -364 214 -722 195 -1102 -17 -318 -73 -572 -189 -852
-37 -89 -127 -269 -152 -305 -11 -14 -19 -29 -19 -32 0 -15 -140 -209 -221
-306 -181 -218 -342 -355 -639 -546 -49 -31 -223 -120 -295 -150 -570 -238
-1205 -262 -1784 -68 -57 19 -124 44 -150 55 -149 67 -195 89 -276 133 -319
175 -674 500 -851 781 -10 17 -21 32 -25 35 -3 3 -14 21 -24 40 -9 19 -23 42
-30 50 -18 21 -121 221 -151 294 -149 360 -212 717 -194 1091 10 200 30 347
70 505 30 116 89 302 109 336 5 11 27 57 47 104 174 398 525 807 899 1045 33
21 72 46 87 56 15 11 75 44 133 74 452 234 958 323 1470 259z"/>
<path d="M3805 4230 c-23 -9 -58 -54 -71 -90 -11 -32 -5 -2013 6 -2051 23 -79
86 -125 158 -115 52 7 76 19 407 212 22 13 67 38 99 56 32 18 66 38 75 43 15
10 123 72 209 121 20 12 82 47 137 79 109 64 199 116 257 149 21 11 77 44 125
72 49 28 126 72 173 99 47 26 101 57 120 70 19 12 64 39 100 60 84 50 121 93
127 148 9 84 -28 127 -192 222 -55 32 -111 65 -125 75 -14 9 -63 38 -110 64
-47 26 -130 74 -185 107 -55 32 -120 70 -145 84 -25 14 -90 52 -145 85 -55 33
-136 80 -180 105 -44 25 -147 85 -230 134 -82 48 -195 114 -250 146 -55 32
-116 67 -135 78 -84 49 -106 57 -155 56 -27 0 -59 -4 -70 -9z"/>
</g>
</svg>
